<svg width="25" height="25" viewBox="0 0 25 25" fill="none" xmlns="http://www.w3.org/2000/svg">
<path d="M13.8571 1H2.71429C1.76751 1 1 1.76751 1 2.71429V21.5714C1 22.5182 1.76751 23.2857 2.71429 23.2857H18.1429C19.0897 23.2857 19.8571 22.5182 19.8571 21.5714V13.8571" stroke="black" stroke-width="2" stroke-linecap="round" stroke-linejoin="round"/>
<path d="M1 18.1428H19.8571" stroke="black" stroke-width="2" stroke-linecap="round" stroke-linejoin="round"/>
<path d="M6.14282 5.28564H9.57139" stroke="black" stroke-width="2" stroke-linecap="round" stroke-linejoin="round"/>
<path d="M6.14282 9.57153H7.85711" stroke="black" stroke-width="2" stroke-linecap="round" stroke-linejoin="round"/>
<path d="M15.5613 13.0099L10.4185 13.9357L11.2756 8.72423L18.527 1.50708C18.6864 1.34641 18.876 1.21887 19.085 1.13184C19.2938 1.04481 19.5178 1 19.7441 1C19.9706 1 20.1946 1.04481 20.4034 1.13184C20.6124 1.21887 20.802 1.34641 20.9612 1.50708L22.7784 3.32423C22.9392 3.48359 23.0667 3.67319 23.1536 3.88209C23.2407 4.09099 23.2855 4.31507 23.2855 4.54137C23.2855 4.76767 23.2407 4.99175 23.1536 5.20063C23.0667 5.40954 22.9392 5.59915 22.7784 5.75851L15.5613 13.0099Z" stroke="black" stroke-width="2" stroke-linecap="round" stroke-linejoin="round"/>
</svg>
