<svg width="25" height="25" viewBox="0 0 25 25" fill="none" xmlns="http://www.w3.org/2000/svg">
<path d="M11.2857 21.5714C16.9664 21.5714 21.5714 16.9664 21.5714 11.2857C21.5714 5.60507 16.9664 1 11.2857 1C5.60507 1 1 5.60507 1 11.2857C1 16.9664 5.60507 21.5714 11.2857 21.5714Z" stroke="black" stroke-width="2" stroke-linecap="round" stroke-linejoin="round"/>
<path d="M18.5542 18.5542L23.2856 23.2856" stroke="black" stroke-width="2" stroke-linecap="round" stroke-linejoin="round"/>
<path d="M6.14307 10.169C6.14307 9.33167 6.82191 8.65283 7.6593 8.65283H14.912C15.7494 8.65283 16.4282 9.33167 16.4282 10.169V14.4831C16.4282 15.3205 15.7494 15.9994 14.912 15.9994H7.6593C6.82191 15.9994 6.14307 15.3205 6.14307 14.4831V10.169Z" stroke="black" stroke-width="2" stroke-linecap="round" stroke-linejoin="round"/>
<path d="M9.08179 8.30303V7.42864C9.08179 6.48188 9.84929 5.71436 10.7961 5.71436H11.7754C12.7222 5.71436 13.4897 6.48188 13.4897 7.42864V8.30303" stroke="black" stroke-width="2" stroke-linecap="round" stroke-linejoin="round"/>
</svg>
