<svg width="24" height="24" viewBox="0 0 24 24" fill="none" xmlns="http://www.w3.org/2000/svg">
<g clip-path="url(#clip0_219_928)">
<path d="M8.14293 9.42868C7.90624 9.42868 7.71436 9.2368 7.71436 9.0001C7.71436 8.76341 7.90624 8.57153 8.14293 8.57153" stroke="black" stroke-width="2" stroke-linecap="round" stroke-linejoin="round"/>
<path d="M8.14282 9.42868C8.37951 9.42868 8.57139 9.2368 8.57139 9.0001C8.57139 8.76341 8.37951 8.57153 8.14282 8.57153" stroke="black" stroke-width="2" stroke-linecap="round" stroke-linejoin="round"/>
<path d="M15.8573 9.42868C15.6206 9.42868 15.4287 9.2368 15.4287 9.0001C15.4287 8.76341 15.6206 8.57153 15.8573 8.57153" stroke="black" stroke-width="2" stroke-linecap="round" stroke-linejoin="round"/>
<path d="M15.8572 9.42868C16.0939 9.42868 16.2857 9.2368 16.2857 9.0001C16.2857 8.76341 16.0939 8.57153 15.8572 8.57153" stroke="black" stroke-width="2" stroke-linecap="round" stroke-linejoin="round"/>
<path d="M12 23.1429C18.1541 23.1429 23.1429 18.1541 23.1429 12C23.1429 5.84601 18.1541 0.857178 12 0.857178C5.84601 0.857178 0.857178 5.84601 0.857178 12C0.857178 18.1541 5.84601 23.1429 12 23.1429Z" stroke="black" stroke-width="2" stroke-linecap="round" stroke-linejoin="round"/>
<path d="M8.39771 15.7604C8.80053 15.2038 10.0895 14.0906 12.023 14.0906C13.9565 14.0906 15.2455 15.2038 15.6483 15.7604" stroke="black" stroke-width="2" stroke-linecap="round" stroke-linejoin="round"/>
<path d="M6.99414 14.0315C8.31894 14.6069 8.72528 16.1602 8.19687 17.6045" stroke="black" stroke-width="2" stroke-linecap="round" stroke-linejoin="round"/>
<path d="M17.0057 14.0315C15.6809 14.6069 15.2746 16.1602 15.803 17.6045" stroke="black" stroke-width="2" stroke-linecap="round" stroke-linejoin="round"/>
</g>
<defs>
<clipPath id="clip0_219_928">
<rect width="24" height="24" fill="white"/>
</clipPath>
</defs>
</svg>
