<svg width="48" height="59" viewBox="0 0 48 59" fill="none" xmlns="http://www.w3.org/2000/svg">
<path d="M36.8234 0.0456543H20.2012V5.76325H36.8234V0.0456543Z" fill="#FF725E"/>
<g opacity="0.3">
<path d="M36.8234 0.0456543H20.2012V5.76325H36.8234V0.0456543Z" fill="black"/>
</g>
<path d="M42.6481 0.0456543H26.0259V5.76325H42.6481V0.0456543Z" fill="#FF725E"/>
<path d="M22.6652 5.54641C22.6285 5.54641 22.6016 4.30475 22.6016 2.77321C22.6016 1.24167 22.6285 0 22.6652 0C22.702 0 22.7289 1.24167 22.7289 2.77321C22.7289 4.30475 22.6995 5.54641 22.6652 5.54641Z" fill="#263238"/>
<path d="M42.775 3.17946C42.775 3.21142 37.7266 3.23881 31.5074 3.23881C25.2881 3.23881 20.2397 3.21142 20.2397 3.17946C20.2397 3.14751 25.2906 3.12012 31.5074 3.12012C37.7242 3.12012 42.775 3.14294 42.775 3.17946Z" fill="#263238"/>
<path d="M35.4074 5.72672C35.3731 5.72672 35.3438 4.4782 35.3438 2.93982C35.3438 1.40143 35.3731 0.150635 35.4074 0.150635C35.4417 0.150635 35.4711 1.39915 35.4711 2.93982C35.4711 4.48049 35.4417 5.72672 35.4074 5.72672Z" fill="#263238"/>
<path d="M7.46133 58.3811L41.6953 58.3811V33.7783H7.46133V58.3811Z" fill="#FF725E"/>
<g opacity="0.3">
<path d="M15.9538 33.7761H7.46143V58.3789H15.9538V33.7761Z" fill="black"/>
</g>
<path d="M16.032 58.1345C16.0786 58.1345 16.1178 52.6566 16.1178 45.8867C16.1178 39.1169 16.0786 33.6367 16.032 33.6367C15.9855 33.6367 15.9463 39.1146 15.9463 45.8867C15.9463 52.6588 15.9928 58.1345 16.032 58.1345Z" fill="#263238"/>
<path d="M10.3663 55.4731H12.9897V52.7091H10.3663V55.4731Z" fill="#FF725E"/>
<g opacity="0.3">
<path d="M31.2506 33.8398H27.3633V39.0895H31.2506V33.8398Z" fill="black"/>
</g>
<g opacity="0.3">
<path d="M31.2506 53.0562H27.3633V58.3058H31.2506V53.0562Z" fill="black"/>
</g>
<path d="M41.4673 33.824C41.4673 33.8559 33.8739 33.8833 24.5095 33.8833C15.1451 33.8833 7.5542 33.8559 7.5542 33.824C7.5542 33.792 15.1476 33.7646 24.5095 33.7646C33.8715 33.7646 41.4673 33.7898 41.4673 33.824Z" fill="#263238"/>
<path d="M24.8796 35.6499H18.7461V38.8339H24.8796V35.6499Z" fill="#E0E0E0"/>
<path d="M25.5481 28.3459H0.00976562V34.0635H25.5481V28.3459Z" fill="#FF725E"/>
<g opacity="0.3">
<path d="M25.5481 28.3459H0.00976562V34.0635H25.5481V28.3459Z" fill="black"/>
</g>
<path d="M45.9256 28.3459H14.751V34.0635H45.9256V28.3459Z" fill="#FF725E"/>
<path d="M7.01535 33.8491C6.98105 33.8491 6.95166 32.6075 6.95166 31.0759C6.95166 29.5444 6.98105 28.3027 7.01535 28.3027C7.04964 28.3027 7.08148 29.5444 7.08148 31.0759C7.08148 32.6075 7.05209 33.8491 7.01535 33.8491Z" fill="#263238"/>
<path d="M45.9156 31.4797C45.9156 31.5117 35.6277 31.5391 22.959 31.5391C10.2903 31.5391 0 31.5117 0 31.4797C0 31.4478 10.2878 31.4204 22.959 31.4204C35.6302 31.4204 45.9156 31.4455 45.9156 31.4797Z" fill="#263238"/>
<path d="M33.9646 33.9311C33.9303 33.9311 33.9009 32.6826 33.9009 31.142C33.9009 29.6013 33.9303 28.3528 33.9646 28.3528C33.9989 28.3528 34.0283 29.6013 34.0283 31.142C34.0283 32.6826 33.9989 33.9311 33.9646 33.9311Z" fill="#263238"/>
<path d="M16.6442 28.3027L48 28.3027V5.76788L16.6442 5.76788L16.6442 28.3027Z" fill="#FF725E"/>
<g opacity="0.3">
<path fill-rule="evenodd" clip-rule="evenodd" d="M28.4584 8.41322V7.36328H26.5649V8.41322C26.5654 8.62863 26.6499 8.83654 26.8027 8.99821C26.9554 9.15988 27.1661 9.26428 27.3953 9.29197V10.205H26.9716C26.8246 10.205 26.7021 10.2848 26.7021 10.3807H28.3261C28.3261 10.2848 28.2061 10.205 28.0591 10.205H27.6354V9.29197C27.8631 9.26231 28.0717 9.15711 28.2228 8.99569C28.374 8.83428 28.4577 8.62746 28.4584 8.41322Z" fill="black"/>
<path fill-rule="evenodd" clip-rule="evenodd" d="M32.0957 8.34246C32.0215 8.06344 31.8493 7.81554 31.6065 7.63813C31.3638 7.46073 31.0644 7.36399 30.7559 7.36328C30.4478 7.3645 30.1489 7.46147 29.9067 7.63883C29.6644 7.8162 29.4926 8.06382 29.4185 8.34246H30.6285V9.99041C30.6285 10.0564 30.6004 10.1197 30.5503 10.1663C30.5002 10.213 30.4323 10.2392 30.3615 10.2392C30.2907 10.2392 30.2228 10.213 30.1727 10.1663C30.1226 10.1197 30.0945 10.0564 30.0945 9.99041H29.8349C29.8349 10.1206 29.8904 10.2454 29.9891 10.3374C30.0879 10.4294 30.2218 10.4811 30.3615 10.4811C30.5012 10.4811 30.6351 10.4294 30.7339 10.3374C30.8327 10.2454 30.8881 10.1206 30.8881 9.99041V8.34474L32.0957 8.34246Z" fill="black"/>
</g>
<g opacity="0.3">
<path d="M24.4212 5.76562H16.644V28.3005H24.4212V5.76562Z" fill="black"/>
</g>
<path d="M24.4358 28.0767C24.4799 28.0767 24.5142 23.0781 24.5142 16.9154C24.5142 10.7528 24.4799 5.75415 24.4358 5.75415C24.3917 5.75415 24.3574 10.7505 24.3574 16.9154C24.3574 23.0804 24.3942 28.0767 24.4358 28.0767Z" fill="#263238"/>
<path d="M19.3046 25.6389H21.7075V23.1077H19.3046V25.6389Z" fill="#FF725E"/>
<g opacity="0.3">
<path d="M38.4351 5.82495H34.8735V10.6341H38.4351V5.82495Z" fill="black"/>
</g>
<g opacity="0.3">
<path d="M38.4351 23.425H34.8735V28.2342H38.4351V23.425Z" fill="black"/>
</g>
<path d="M47.7723 5.77932C47.7723 5.81127 40.8183 5.83866 32.2426 5.83866C23.667 5.83866 16.7104 5.81127 16.7104 5.77932C16.7104 5.74736 23.6621 5.71997 32.2426 5.71997C40.8232 5.71997 47.7723 5.74508 47.7723 5.77932Z" fill="#263238"/>
<path d="M41.5702 34.0545C41.5702 34.0864 33.8567 34.1138 24.3429 34.1138C14.8292 34.1138 7.11328 34.0864 7.11328 34.0545C7.11328 34.0225 14.8243 33.9951 24.3429 33.9951C33.8616 33.9951 41.5702 34.0202 41.5702 34.0545Z" fill="#263238"/>
<path d="M43.4442 28.2776C43.4442 28.3118 35.7283 28.337 26.2145 28.337C16.7007 28.337 8.98486 28.3118 8.98486 28.2776C8.98486 28.2434 16.6983 28.2183 26.2145 28.2183C35.7308 28.2183 43.4442 28.2502 43.4442 28.2776Z" fill="#263238"/>
</svg>
